HIERARCHY
ROOT Pelvis
{
	OFFSET 0.000000 0.000000 0.000000
	CHANNELS 6 Xposition Yposition Zposition Zrotation Yrotation Xrotation 
	JOINT Left_hip
	{
		OFFSET 0.069463 -0.088608 -0.009542
		CHANNELS 3 Zrotation Yrotation Xrotation
		JOINT Left_knee
		{
			OFFSET 0.030639 -0.359740 -0.005288
			CHANNELS 3 Zrotation Yrotation Xrotation
			JOINT Left_ankle
			{
				OFFSET -0.011068 -0.376034 -0.042462
				CHANNELS 3 Zrotation Yrotation Xrotation
				JOINT Left_foot
				{
					OFFSET 0.023192 -0.053321 0.111332
					CHANNELS 3 Zrotation Yrotation Xrotation
					End Site
					{
						OFFSET 0.000000 0.000000 0.000000
					}
				}
			}
		}
	}
	JOINT Right_hip
	{
		OFFSET -0.067438 -0.088025 -0.006263
		CHANNELS 3 Zrotation Yrotation Xrotation
		JOINT Right_knee
		{
			OFFSET -0.035962 -0.366229 -0.008063
			CHANNELS 3 Zrotation Yrotation Xrotation
			JOINT Right_ankle
			{
				OFFSET 0.013608 -0.375719 -0.040481
				CHANNELS 3 Zrotation Yrotation Xrotation
				JOINT Right_foot
				{
					OFFSET -0.021034 -0.045527 0.114617
					CHANNELS 3 Zrotation Yrotation Xrotation
					End Site
					{
						OFFSET 0.000000 0.000000 0.000000
					}
				}
			}
		}
	}
	JOINT Spine1
	{
		OFFSET -0.002610 0.101823 -0.019986
		CHANNELS 3 Zrotation Yrotation Xrotation
		JOINT Spine2
		{
			OFFSET 0.004114 0.128714 -0.000938
			CHANNELS 3 Zrotation Yrotation Xrotation
			JOINT Spine3
			{
				OFFSET 0.002191 0.048470 0.027684
				CHANNELS 3 Zrotation Yrotation Xrotation
				JOINT Neck
				{
					OFFSET -0.002856 0.198873 -0.044022
					CHANNELS 3 Zrotation Yrotation Xrotation
					JOINT Head
					{
						OFFSET 0.002981 0.062960 0.049860
						CHANNELS 3 Zrotation Yrotation Xrotation
						End Site
						{
							OFFSET 0.000000 0.000000 0.000000
						}
					}
				}
				JOINT Left_collar
				{
					OFFSET 0.073708 0.112550 -0.033440
					CHANNELS 3 Zrotation Yrotation Xrotation
					JOINT Left_shoulder
					{
						OFFSET 0.083291 0.030786 -0.008013
						CHANNELS 3 Zrotation Yrotation Xrotation
						JOINT Left_elbow
						{
							OFFSET 0.245601 -0.011792 -0.027873
							CHANNELS 3 Zrotation Yrotation Xrotation
							JOINT Left_wrist
							{
								OFFSET 0.232258 0.008622 -0.000487
								CHANNELS 3 Zrotation Yrotation Xrotation
								JOINT Left_palm
								{
									OFFSET 0.077300 -0.009457 -0.012851
									CHANNELS 3 Zrotation Yrotation Xrotation
									End Site
									{
										OFFSET 0.000000 0.000000 0.000000
									}
								}
							}
						}
					}
				}
				JOINT Right_collar
				{
					OFFSET -0.075339 0.110574 -0.037874
					CHANNELS 3 Zrotation Yrotation Xrotation
					JOINT Right_shoulder
					{
						OFFSET -0.086522 0.031207 -0.009986
						CHANNELS 3 Zrotation Yrotation Xrotation
						JOINT Right_elbow
						{
							OFFSET -0.237313 -0.011478 -0.019859
							CHANNELS 3 Zrotation Yrotation Xrotation
							JOINT Right_wrist
							{
								OFFSET -0.237599 0.007976 -0.003742
								CHANNELS 3 Zrotation Yrotation Xrotation
								JOINT Right_palm
								{
									OFFSET -0.076920 -0.006943 -0.009920
									CHANNELS 3 Zrotation Yrotation Xrotation
									End Site
									{
										OFFSET 0.000000 0.000000 0.000000
									}
								}
							}
						}
					}
				}
			}
		}
	}
}
MOTION
Frames: 8
Frame Time: 0.100000
-0.348004 -0.261239 1.287554 176.166240 18.730141 -18.012068 5.068851 5.805850 9.386137 1.187334 1.892068 -1.898126 -4.022072 5.208327 -1.769256 -3.451765 11.523810 -3.151333 -2.991095 -3.746442 3.730036 -2.907669 -7.391825 6.218791 0.447717 6.701701 -1.348397 15.787272 -17.016715 -0.028672 2.879152 -1.927317 27.488095 1.605568 -7.487307 10.652141 4.270764 -2.424063 -5.123512 -6.661235 -10.024738 12.476369 6.281951 -7.517677 -10.242816 -21.611965 -19.900359 5.463471 -56.661819 -25.417956 15.338663 81.340134 -72.346197 -72.329401 -9.361813 -9.653313 -36.188591 2.410009 -2.779610 13.373690 16.282973 18.976776 2.562557 57.165162 13.882585 22.078445 -155.862560 69.456989 -123.642763 -12.442181 1.112931 12.740240 7.455605 13.481716 -0.561050 
-0.347614 -0.260774 1.285491 176.208316 18.581598 -17.939042 5.016230 5.783839 9.183397 1.165435 2.057323 -1.855509 -3.892632 5.196599 -1.742406 -3.605365 11.496715 -3.088088 -2.989232 -3.672047 3.503843 -2.935030 -7.441586 6.207497 0.291015 6.910176 -1.286458 16.130377 -17.272488 -0.052313 2.895797 -1.924007 27.534992 1.644160 -7.466353 10.475843 4.288274 -2.372182 -5.158521 -6.728698 -9.992900 12.696663 6.248092 -7.476268 -10.151517 -21.614139 -19.940722 5.481085 -56.762695 -25.422604 15.346610 81.391394 -72.241874 -72.339706 -9.397602 -9.641186 -36.127792 2.370145 -2.787489 13.395046 16.362907 19.176862 2.632343 57.568109 14.257127 22.358324 -156.284036 69.479128 -123.763309 -12.435210 1.009369 13.123664 7.417271 13.554322 -0.575482 
-0.347468 -0.260416 1.283474 176.253362 18.656952 -17.927436 4.912996 5.733522 9.023749 1.157476 2.094410 -1.801674 -3.834724 5.162115 -1.669816 -3.680014 11.553370 -3.114997 -3.050582 -3.608512 3.353561 -2.972200 -7.494668 6.277347 0.232086 6.940049 -1.219294 16.249752 -17.353510 -0.076466 2.967087 -1.972815 27.582805 1.669789 -7.465703 10.353564 4.306189 -2.369818 -5.165754 -6.664282 -10.135277 12.839811 6.321656 -7.459157 -10.127637 -21.620788 -20.000720 5.525566 -56.812006 -25.518386 15.312774 81.352851 -71.979774 -72.415109 -9.408187 -9.643921 -36.217492 2.474214 -2.776827 13.496716 16.290072 19.336572 2.616344 57.761667 14.487115 22.530044 -156.387662 69.555036 -123.781792 -12.478160 1.020083 13.310867 7.270641 13.541991 -0.491829 
-0.347586 -0.260169 1.282224 176.268833 18.684581 -17.996319 4.882399 5.785251 8.985116 1.156700 2.058730 -1.740827 -3.774142 5.113417 -1.606389 -3.816836 11.583195 -3.221266 -3.141572 -3.747109 3.219345 -2.966603 -7.510896 6.522717 0.418939 7.019796 -1.145758 16.051698 -17.200098 -0.160697 3.010349 -1.981628 27.635168 1.719667 -7.471541 10.275846 4.335467 -2.379256 -5.127446 -6.550800 -10.199708 12.753285 6.456333 -7.495977 -10.155866 -21.660990 -19.895600 5.435093 -56.833386 -25.568538 15.241252 81.367987 -71.933313 -72.591130 -9.017162 -9.384583 -36.272522 2.301599 -2.913990 13.523908 16.373670 19.102634 2.614661 57.597876 14.233941 22.338094 -156.263008 69.263939 -123.708960 -13.375498 1.134290 13.704274 7.629599 13.715205 -0.649826 
-0.347674 -0.260076 1.281775 176.267826 18.532863 -18.082087 4.916764 5.813852 9.037769 1.137344 2.073042 -1.629030 -3.834024 5.251758 -1.673955 -3.682501 11.701149 -3.325161 -3.105096 -3.683075 3.327834 -2.919358 -7.238338 6.339145 0.721982 6.752043 -0.944903 15.599129 -16.798299 -0.230150 3.004541 -2.013107 27.530020 1.699200 -7.414032 10.297137 4.349756 -2.439354 -5.047420 -6.448950 -10.347134 12.418814 6.530289 -7.402732 -10.256163 -21.801595 -19.687506 5.422359 -56.554090 -25.573229 15.177018 81.392053 -71.968134 -72.983662 -8.768004 -9.383038 -36.247703 2.447100 -2.891110 13.608203 16.416463 18.807567 2.620807 57.117735 13.544356 22.603446 -159.391054 69.486953 -127.099075 -13.230441 1.450338 13.127485 7.484450 13.568312 -0.500146 
-0.347794 -0.259701 1.280179 176.288177 18.533739 -18.020226 4.857973 5.804625 8.844266 1.100618 1.990076 -1.538157 -3.788255 5.338066 -1.639121 -3.648409 12.041986 -3.570305 -3.155127 -3.783537 3.159166 -2.876585 -7.016177 6.280555 1.134281 6.486760 -0.704777 15.005523 -16.284632 -0.466937 3.053645 -2.020772 27.666914 1.603786 -7.311063 10.367366 4.402490 -2.446349 -4.939149 -6.219285 -10.643797 11.279674 7.053452 -7.368443 -11.332965 -21.887864 -19.636803 5.203893 -56.443769 -25.722429 15.319177 82.239693 -72.104500 -74.387107 -8.055465 -8.948471 -36.535252 2.454206 -3.025809 13.841760 16.393130 18.650515 2.651057 56.903733 12.526334 23.069245 -163.016842 69.673259 -130.961882 -14.008235 1.493963 13.205937 7.672953 13.674080 -0.690145 
-0.347812 -0.259211 1.276451 176.257150 18.402307 -17.818895 4.843308 5.927950 8.432827 1.098277 2.226259 -1.583752 -3.948136 4.947656 -1.524836 -3.508192 12.386666 -3.381927 -3.203208 -3.894275 2.627445 -2.856651 -7.309958 6.411024 1.257793 6.973156 -0.382572 15.250664 -16.577620 -0.713060 3.114950 -2.005379 28.134697 1.730105 -7.398634 10.400975 4.513679 -2.364994 -5.084194 -5.430265 -10.311505 9.644783 7.095718 -7.583505 -12.561783 -21.488990 -19.814088 4.743976 -56.786297 -25.659139 15.205440 82.098937 -72.016449 -73.641293 -8.141116 -8.845896 -36.152694 2.186041 -3.194681 13.477722 15.892761 19.251442 1.779972 57.312768 14.993444 22.783828 -159.803812 67.652165 -127.176942 -15.175850 1.780903 14.416662 8.288792 13.959642 -0.979194 
-0.347662 -0.259305 1.272968 176.164355 17.999461 -17.943309 4.866814 5.957399 8.263189 1.241614 2.609726 -1.389293 -4.029706 4.742812 -1.451082 -3.630082 12.635737 -3.051367 -3.057437 -3.806383 2.929721 -2.840519 -7.227252 5.436215 1.300459 7.093301 0.242206 15.404190 -16.322190 -0.349843 3.343689 -2.003522 28.561746 1.630913 -7.349490 10.175285 4.400697 -2.070927 -5.171549 -4.910192 -10.064122 10.550968 6.319670 -8.012081 -11.013222 -21.144172 -20.537445 4.690624 -56.614423 -25.649523 15.062281 79.820898 -72.122071 -71.360031 -5.590202 -8.475000 -36.102297 1.937407 -3.618579 12.834369 15.052925 21.543433 1.032730 56.565723 20.425764 22.190145 -151.866042 66.770013 -119.867092 -22.281719 3.970990 17.268856 10.086107 14.531821 -1.913534 
